# xmcd CD database file
#
# Track frame offsets:
#	150
#	16924
#	26224
#	43345
#	58760
#
# Disc length: 1086 seconds
#
# Revision: 0
# Processed by: cddbd v1.5.2PL0 Copyright (c) Steve Scherf et al.
# Submitted via: CDex 1.70beta2
#
DISCID=40043c05
DTITLE=Jazzed Petra Rennings - The two of us
DYEAR=2007
DGENRE=Jazz
TTITLE0=Still crazy
TTITLE1=Have you met Miss Jones
TTITLE2=You are the sunshine
TTITLE3=Just the two of us
TTITLE4=New York state of mind
EXTD=YEAR: 2007
EXTT0=
EXTT1=
EXTT2=
EXTT3=
EXTT4=
PLAYORDER=
